:SAMPLES-PER-SECOND 30
:FULLY-SPECIFIED
:DEGREES
417
root  -6.572 40.8726 -0.410759 -6.24426 -81.2869 7.33044
RightUpLeg  6.54086 -2.83156 -1.68633
RightLeg  -4.54827 -29.2557 2.95207
RightFoot  -1.77138 -0.265496 2.87708
RightToes  -3.11842e-008 1.75238e-005 3.56266e-009
Spine  -3.72296 0.48854 1.95886
Spine1  1.27809 0.641826 -1.14263
HEad  -8.26009 13.1272 -6.25534
LeftShoulder1  1.6112 -2.4319 -20.734
LeftArm  -40.2108 1.78416 -36.2623
LeftForeArm  133.112 -43.0907 -168.263
LeftHand  0.746675 -11.0605 -4.77733
RightShoulder  1.92523 4.11833 18.8057
RightArm  -24.8983 18.5844 28.3402
RightForeArm  127.156 46.1731 166.788
RightHand  0.390745 10.0927 2.49909
LeftUpLeg  4.63415 1.32693 3.05929
LeftLeg  -4.3072 5.28325 -0.770658
LeftFoot  -0.0321036 0.361694 -3.65002
LeftToes  4.78904e-008 1.4679e-008 1.35657e-009
418
root  -6.55675 40.8971 -0.448873 -6.67383 -81.0041 8.41357
RightUpLeg  5.79357 -2.67914 -1.72262
RightLeg  -4.46347 -29.655 2.79491
RightFoot  -1.60718 -0.275676 3.04381
RightToes  -3.11842e-008 1.75238e-005 3.56266e-009
Spine  -2.74048 1.13986 3.16619
Spine1  -1.92817 1.51879 -3.04478
HEad  -5.50349 11.9278 -5.53764
LeftShoulder1  1.47026 -2.28859 -18.8467
LeftArm  -42.6506 -6.17869 -33.5347
LeftForeArm  127.985 -48.624 -165.785
LeftHand  0.493142 -6.62381 -4.46719
RightShoulder  1.76298 4.01997 16.8087
RightArm  -31.2825 23.9975 26.6363
RightForeArm  120.599 49.2261 165.133
RightHand  0.153096 9.16852 0.822859
LeftUpLeg  3.99874 1.05744 2.87493
LeftLeg  -4.64431 5.32073 -0.802567
LeftFoot  0.484934 0.391893 -3.81384
LeftToes  4.78904e-008 1.4679e-008 1.35657e-009
419
root  -6.51849 40.9099 -0.504891 -5.71472 -80.205 8.24237
RightUpLeg  5.04398 -2.51451 -1.5918
RightLeg  -4.77026 -30.6875 2.97583
RightFoot  -1.38315 -0.267766 2.93558
RightToes  -3.11842e-008 1.75238e-005 3.56266e-009
Spine  -1.45767 1.7799 4.70159
Spine1  -5.58992 2.32598 -5.57966
HEad  -1.69092 10.9693 -5.089
LeftShoulder1  1.40301 -2.43389 -16.9493
LeftArm  -45.3916 -15.3081 -31.4994
LeftForeArm  125.818 -55.5507 -162.052
LeftHand  0.305171 -6.6058 -2.58653
RightShoulder  1.53126 3.60448 14.7423
RightArm  -37.4486 29.318 25.5064
RightForeArm  114.585 53.4436 162.65
RightHand  -0.0322951 8.77254 -0.648267
LeftUpLeg  3.10528 0.841823 2.86
LeftLeg  -5.00954 4.78661 -0.792646
LeftFoot  0.926326 0.405334 -3.82273
LeftToes  4.78904e-008 1.4679e-008 1.35657e-009
420
root  -6.50131 40.9345 -0.556812 -5.58191 -79.5484 8.60101
RightUpLeg  4.8308 -2.47371 -1.62062
RightLeg  -5.48998 -31.3524 3.42408
RightFoot  -1.07817 -0.254317 2.74809
RightToes  -3.11842e-008 1.75238e-005 3.56266e-009
Spine  0.364147 2.31672 6.87065
Spine1  -9.28497 3.00712 -9.32226
HEad  1.13932 10.0473 -4.13866
LeftShoulder1  1.33889 -2.56277 -15.2385
LeftArm  -48.8016 -23.6621 -30.2351
LeftForeArm  122.831 -62.1725 -156.88
LeftHand  0.243385 -4.96649 -2.43446
RightShoulder  1.34917 3.32585 12.787
RightArm  -42.0463 33.5305 25.5276
RightForeArm  111.313 58.1682 159.386
RightHand  -0.160668 8.48953 -1.73068
LeftUpLeg  2.42849 0.710072 2.78967
LeftLeg  -5.04175 4.37864 -0.769074
LeftFoot  1.38474 0.447434 -4.08816
LeftToes  4.78904e-008 1.4679e-008 1.35657e-009
421
root  -6.46769 40.9339 -0.613541 -5.53436 -78.9067 8.90662
RightUpLeg  4.44352 -2.52972 -1.67077
RightLeg  -5.4843 -31.9048 3.52927
RightFoot  -1.13436 -0.246186 2.66823
RightToes  -3.11842e-008 1.75238e-005 3.56266e-009
Spine  1.24832 2.74513 8.31846
Spine1  -11.021 3.49171 -11.8797
HEad  2.20649 8.61364 -4.14485
LeftShoulder1  1.23997 -2.34019 -14.3098
LeftArm  -51.5524 -29.6621 -29.0275
LeftForeArm  116.897 -67.3924 -150.467
LeftHand  0.241734 -4.79824 -2.45988
RightShoulder  1.2475 3.29709 11.1892
RightArm  -45.6104 37.3339 25.4776
RightForeArm  107.754 62.4435 155.501
RightHand  -0.216322 7.96676 -2.24386
LeftUpLeg  2.08913 0.572433 2.72834
LeftLeg  -5.4789 3.91914 -0.773904
LeftFoot  1.76634 0.465473 -4.14485
LeftToes  4.78904e-008 1.4679e-008 1.35657e-009
422
root  -6.41099 40.9205 -0.698531 -4.27411 -78.0894 7.86444
RightUpLeg  4.17021 -2.45174 -1.41157
RightLeg  -5.5831 -32.8487 3.7538
RightFoot  -1.23389 -0.22481 2.44525
RightToes  -3.11842e-008 1.75238e-005 3.56266e-009
Spine  2.09069 3.18829 9.1539
Spine1  -12.0782 3.94303 -13.2794
HEad  1.97387 8.67221 -4.55284
LeftShoulder1  1.13855 -1.9813 -13.8014
LeftArm  -53.2394 -34.0166 -30.2969
LeftForeArm  111.155 -70.3204 -145.078
LeftHand  0.223833 -4.02424 -2.49098
RightShoulder  1.13341 3.08649 9.92782
RightArm  -47.4104 39.7905 25.6848
RightForeArm  103.627 65.2095 152.172
RightHand  -0.275917 8.54972 -2.67917
LeftUpLeg  1.52883 0.638969 2.96379
LeftLeg  -5.32902 3.05619 -0.690522
LeftFoot  1.74959 0.472773 -4.21272
LeftToes  4.78904e-008 1.4679e-008 1.35657e-009
423
root  -6.38217 40.9057 -0.749634 -3.33032 -77.6264 6.8374
RightUpLeg  4.1978 -2.30521 -1.10079
RightLeg  -5.56149 -33.5125 3.76956
RightFoot  -1.29019 -0.219983 2.42943
RightToes  -3.11842e-008 1.75238e-005 3.56266e-009
Spine  2.88088 3.74009 10.7892
Spine1  -12.6395 4.61627 -15.7119
HEad  2.29863 7.86259 -5.23028
LeftShoulder1  1.10325 -1.77931 -13.9346
LeftArm  -52.8738 -35.8015 -32.7748
LeftForeArm  110.559 -70.7167 -144.191
LeftHand  0.192049 -3.96109 -2.11451
RightShoulder  1.19338 3.35637 10.1457
RightArm  -47.3502 39.9963 25.8459
RightForeArm  102.093 65.614 151.523
RightHand  -0.29619 8.1115 -2.91545
LeftUpLeg  1.6487 0.73607 3.19908
LeftLeg  -5.66965 2.50791 -0.616898
LeftFoot  1.77588 0.473398 -4.21108
LeftToes  4.78904e-008 1.4679e-008 1.35657e-009
424
root  -6.35314 40.9101 -0.829925 -2.51904 -76.72 6.06287
RightUpLeg  4.29468 -2.17695 -0.832419
RightLeg  -5.94831 -34.5442 4.10483
RightFoot  -1.26134 -0.209733 2.30883
RightToes  -3.11842e-008 1.75238e-005 3.56266e-009
Spine  3.13 4.22536 11.6534
Spine1  -12.2705 5.25807 -17.1042
HEad  1.99294 6.17156 -5.83569
LeftShoulder1  1.2037 -1.79445 -15.9529
LeftArm  -50.7156 -34.6326 -34.895
LeftForeArm  114.73 -68.9265 -147.837
LeftHand  0.270272 -4.87696 -2.75569
RightShoulder  1.18702 3.27022 10.2783
RightArm  -45.2629 38.4366 27.5065
RightForeArm  104.426 63.9143 153.704
RightHand  -0.29823 8.27201 -2.9108
LeftUpLeg  1.23564 0.851571 3.42038
LeftLeg  -5.41449 1.50843 -0.507904
LeftFoot  1.89628 0.501024 -4.41567
LeftToes  4.78904e-008 1.4679e-008 1.35657e-009
425
root  -6.3714 40.9143 -0.920815 -2.64557 -75.5476 6.04559
RightUpLeg  4.73156 -2.17762 -0.718175
RightLeg  -6.44512 -35.6928 4.50743
RightFoot  -1.31956 -0.194475 2.10341
RightToes  -3.11842e-008 1.75238e-005 3.56266e-009
Spine  2.6523 4.56251 11.6008
Spine1  -10.8707 5.84829 -17.9169
HEad  1.84176 4.41458 -5.99925
LeftShoulder1  1.23595 -1.62313 -17.4622
LeftArm  -46.4423 -29.7911 -38.4921
LeftForeArm  120.747 -64.2739 -154.562
LeftHand  0.38008 -5.48784 -3.74997
RightShoulder  1.3738 3.60598 12.2949
RightArm  -41.4299 34.5725 28.58
RightForeArm  107.194 60.241 157.471
RightHand  -0.182079 8.45713 -1.90946
LeftUpLeg  0.894147 0.813632 3.42673
LeftLeg  -4.82998 0.425225 -0.28556
LeftFoot  1.9478 0.543274 -4.76412
LeftToes  4.78904e-008 1.4679e-008 1.35657e-009
426
root  -6.4038 40.8761 -1.0104 -2.11639 -74.0175 5.39642
RightUpLeg  4.83642 -2.17688 -0.400539
RightLeg  -6.09921 -37.2123 4.38684
RightFoot  -1.63355 -0.206416 2.30953
RightToes  -3.11842e-008 1.75238e-005 3.56266e-009
Spine  2.41704 4.57827 11.1984
Spine1  -9.8631 6.03957 -17.9183
HEad  1.37818 3.00044 -5.97074
LeftShoulder1  1.30755 -1.53802 -19.3965
LeftArm  -41.4486 -20.4966 -42.2677
LeftForeArm  125.581 -57.4763 -160.798
LeftHand  0.580651 -6.24783 -5.40617
RightShoulder  1.57275 3.79106 14.7779
RightArm  -35.4296 28.5619 30.6283
RightForeArm  110.14 55.2918 161.318
RightHand  0.00892517 7.99566 -0.263905
LeftUpLeg  0.856637 0.769784 3.57744
LeftLeg  -4.94469 -1.00038 -0.0958181
LeftFoot  1.72571 0.526634 -4.68852
LeftToes  4.78904e-008 1.4679e-008 1.35657e-009
427
root  -6.44113 40.8776 -1.08265 -2.55206 -72.9147 5.57745
RightUpLeg  5.31011 -2.365 -0.420871
RightLeg  -6.28503 -38.0659 4.67275
RightFoot  -1.79421 -0.20776 2.34747
RightToes  -3.11842e-008 1.75238e-005 3.56266e-009
Spine  1.57063 4.93322 9.7479
Spine1  -7.41744 6.63806 -16.5586
HEad  0.380031 1.81653 -6.5907
LeftShoulder1  1.49893 -1.72166 -22.3753
LeftArm  -36.3345 -8.62839 -44.1018
LeftForeArm  127.724 -50.1813 -165.1
LeftHand  0.899246 -7.98342 -7.44502
RightShoulder  1.87992 4.21891 17.7376
RightArm  -29.7255 21.2354 30.6938
RightForeArm  113.886 50.4069 164.261
RightHand  0.510792 8.15968 3.95459
LeftUpLeg  0.920556 0.669429 3.49515
LeftLeg  -4.84029 -1.96533 0.110869
LeftFoot  1.92988 0.552498 -4.84894
LeftToes  4.78904e-008 1.4679e-008 1.35657e-009
